<svg width="949" height="389" viewBox="0 0 949 389" fill="none" xmlns="http://www.w3.org/2000/svg">
<path d="M436.509 217.444C428.835 217.444 421.924 216.077 415.775 213.344C409.678 210.559 404.843 206.46 401.269 201.046C397.748 195.633 395.987 188.958 395.987 181.022C395.987 174.19 397.249 168.54 399.771 164.072C402.294 159.605 405.737 156.031 410.099 153.351C414.461 150.67 419.375 148.647 424.841 147.281C430.359 145.862 436.062 144.837 441.948 144.206C449.043 143.47 454.798 142.813 459.213 142.235C463.628 141.604 466.834 140.658 468.831 139.397C470.881 138.083 471.906 136.06 471.906 133.327V132.854C471.906 126.915 470.145 122.316 466.624 119.058C463.102 115.799 458.031 114.17 451.408 114.17C444.418 114.17 438.874 115.694 434.774 118.742C430.727 121.79 427.994 125.391 426.575 129.543L399.929 125.759C402.031 118.401 405.5 112.251 410.335 107.311C415.17 102.318 421.083 98.5866 428.073 96.1165C435.063 93.5938 442.789 92.3324 451.251 92.3324C457.085 92.3324 462.892 93.0156 468.673 94.3821C474.455 95.7486 479.737 98.0085 484.519 101.162C489.302 104.263 493.139 108.494 496.029 113.854C498.972 119.215 500.444 125.916 500.444 133.957V215H473.009V198.366H472.063C470.329 201.729 467.885 204.883 464.732 207.826C461.631 210.717 457.715 213.055 452.985 214.842C448.308 216.577 442.815 217.444 436.509 217.444ZM443.919 196.474C449.648 196.474 454.614 195.344 458.819 193.084C463.023 190.771 466.256 187.723 468.516 183.939C470.828 180.155 471.984 176.029 471.984 171.562V157.293C471.091 158.028 469.567 158.712 467.412 159.342C465.31 159.973 462.945 160.525 460.317 160.998C457.689 161.471 455.087 161.891 452.512 162.259C449.937 162.627 447.703 162.942 445.811 163.205C441.554 163.783 437.744 164.729 434.38 166.043C431.016 167.357 428.362 169.197 426.418 171.562C424.473 173.874 423.501 176.87 423.501 180.549C423.501 185.805 425.419 189.773 429.256 192.453C433.092 195.134 437.98 196.474 443.919 196.474ZM578.507 93.9091V115.983H508.895V93.9091H578.507ZM526.081 64.8977H554.619V178.578C554.619 182.415 555.198 185.358 556.354 187.408C557.563 189.405 559.139 190.771 561.084 191.507C563.029 192.243 565.183 192.611 567.548 192.611C569.335 192.611 570.965 192.479 572.436 192.217C573.96 191.954 575.117 191.717 575.905 191.507L580.714 213.817C579.19 214.343 577.009 214.921 574.171 215.552C571.385 216.183 567.969 216.55 563.922 216.656C556.774 216.866 550.336 215.788 544.607 213.423C538.879 211.006 534.333 207.274 530.969 202.229C527.658 197.183 526.029 190.876 526.081 183.308V64.8977ZM622.414 144.048V215H593.875V53.5454H621.783V114.485H623.202C626.04 107.653 630.429 102.266 636.368 98.3239C642.359 94.3295 649.98 92.3324 659.23 92.3324C667.639 92.3324 674.971 94.093 681.225 97.6143C687.479 101.136 692.314 106.286 695.731 113.066C699.199 119.846 700.934 128.124 700.934 137.899V215H672.395V142.314C672.395 134.168 670.293 127.835 666.089 123.315C661.937 118.742 656.103 116.456 648.587 116.456C643.542 116.456 639.022 117.56 635.027 119.767C631.086 121.922 627.985 125.049 625.725 129.148C623.518 133.248 622.414 138.214 622.414 144.048ZM753.769 217.444C746.096 217.444 739.185 216.077 733.035 213.344C726.939 210.559 722.104 206.46 718.53 201.046C715.008 195.633 713.248 188.958 713.248 181.022C713.248 174.19 714.509 168.54 717.032 164.072C719.555 159.605 722.997 156.031 727.359 153.351C731.721 150.67 736.636 148.647 742.101 147.281C747.62 145.862 753.322 144.837 759.209 144.206C766.304 143.47 772.059 142.813 776.474 142.235C780.888 141.604 784.094 140.658 786.092 139.397C788.141 138.083 789.166 136.06 789.166 133.327V132.854C789.166 126.915 787.405 122.316 783.884 119.058C780.363 115.799 775.291 114.17 768.669 114.17C761.679 114.17 756.134 115.694 752.035 118.742C747.988 121.79 745.255 125.391 743.836 129.543L717.19 125.759C719.292 118.401 722.761 112.251 727.596 107.311C732.431 102.318 738.344 98.5866 745.334 96.1165C752.324 93.5938 760.05 92.3324 768.511 92.3324C774.345 92.3324 780.153 93.0156 785.934 94.3821C791.715 95.7486 796.997 98.0085 801.78 101.162C806.562 104.263 810.399 108.494 813.29 113.854C816.233 119.215 817.704 125.916 817.704 133.957V215H790.27V198.366H789.324C787.589 201.729 785.146 204.883 781.992 207.826C778.891 210.717 774.976 213.055 770.246 214.842C765.568 216.577 760.076 217.444 753.769 217.444ZM761.18 196.474C766.908 196.474 771.875 195.344 776.079 193.084C780.284 190.771 783.516 187.723 785.776 183.939C788.089 180.155 789.245 176.029 789.245 171.562V157.293C788.351 158.028 786.827 158.712 784.672 159.342C782.57 159.973 780.205 160.525 777.577 160.998C774.949 161.471 772.348 161.891 769.773 162.259C767.197 162.627 764.964 162.942 763.072 163.205C758.815 163.783 755.004 164.729 751.641 166.043C748.277 167.357 745.623 169.197 743.678 171.562C741.734 173.874 740.761 176.87 740.761 180.549C740.761 185.805 742.68 189.773 746.516 192.453C750.353 195.134 755.241 196.474 761.18 196.474ZM931.006 125.916L904.991 128.754C904.255 126.126 902.967 123.656 901.128 121.344C899.341 119.031 896.923 117.165 893.875 115.746C890.827 114.327 887.095 113.618 882.68 113.618C876.742 113.618 871.749 114.906 867.702 117.481C863.707 120.056 861.737 123.393 861.789 127.493C861.737 131.014 863.024 133.879 865.652 136.086C868.332 138.293 872.747 140.107 878.896 141.526L899.551 145.94C911.009 148.411 919.523 152.326 925.094 157.687C930.717 163.048 933.555 170.064 933.608 178.736C933.555 186.357 931.322 193.084 926.907 198.918C922.545 204.699 916.474 209.219 908.696 212.477C900.918 215.736 891.983 217.365 881.892 217.365C867.071 217.365 855.141 214.264 846.101 208.062C837.061 201.808 831.674 193.11 829.94 181.968L857.769 179.288C859.03 184.754 861.71 188.879 865.81 191.665C869.909 194.45 875.244 195.843 881.813 195.843C888.593 195.843 894.033 194.45 898.132 191.665C902.284 188.879 904.36 185.437 904.36 181.337C904.36 177.869 903.02 175.004 900.34 172.744C897.712 170.484 893.612 168.75 888.041 167.541L867.386 163.205C855.771 160.788 847.178 156.714 841.607 150.986C836.036 145.205 833.277 137.899 833.33 129.07C833.277 121.607 835.3 115.142 839.4 109.676C843.552 104.158 849.307 99.9006 856.665 96.9048C864.075 93.8565 872.616 92.3324 882.286 92.3324C896.477 92.3324 907.645 95.3544 915.791 101.398C923.99 107.442 929.062 115.615 931.006 125.916Z" fill="#2154B0"/>
<path d="M402.19 350V282.364H418.131V350H402.19ZM410.205 272.764C407.68 272.764 405.508 271.928 403.688 270.254C401.867 268.552 400.957 266.511 400.957 264.134C400.957 261.726 401.867 259.686 403.688 258.013C405.508 256.31 407.68 255.459 410.205 255.459C412.759 255.459 414.931 256.31 416.722 258.013C418.542 259.686 419.452 261.726 419.452 264.134C419.452 266.511 418.542 268.552 416.722 270.254C414.931 271.928 412.759 272.764 410.205 272.764ZM444.263 310.369V350H428.322V282.364H443.558V293.857H444.351C445.907 290.07 448.387 287.061 451.793 284.83C455.227 282.598 459.469 281.483 464.518 281.483C469.186 281.483 473.252 282.481 476.716 284.477C480.209 286.473 482.91 289.365 484.818 293.152C486.756 296.939 487.71 301.533 487.68 306.935V350H471.74V309.401C471.74 304.88 470.566 301.342 468.217 298.788C465.898 296.234 462.684 294.957 458.574 294.957C455.785 294.957 453.304 295.574 451.132 296.807C448.989 298.01 447.301 299.757 446.068 302.047C444.865 304.337 444.263 307.111 444.263 310.369ZM522.784 351.189C517.471 351.189 512.715 349.824 508.517 347.094C504.319 344.364 501.002 340.401 498.566 335.205C496.129 330.009 494.911 323.697 494.911 316.27C494.911 308.755 496.144 302.414 498.61 297.247C501.105 292.051 504.466 288.132 508.693 285.49C512.921 282.819 517.632 281.483 522.828 281.483C526.791 281.483 530.05 282.158 532.604 283.509C535.158 284.83 537.183 286.429 538.681 288.308C540.178 290.158 541.337 291.904 542.159 293.548H542.82V259.818H558.804V350H543.128V339.344H542.159C541.337 340.988 540.148 342.734 538.593 344.584C537.037 346.404 534.982 347.96 532.428 349.251C529.874 350.543 526.659 351.189 522.784 351.189ZM527.232 338.111C530.608 338.111 533.485 337.201 535.862 335.381C538.24 333.531 540.046 330.963 541.279 327.675C542.512 324.387 543.128 320.556 543.128 316.182C543.128 311.808 542.512 308.006 541.279 304.777C540.075 301.548 538.284 299.038 535.906 297.247C533.558 295.456 530.666 294.561 527.232 294.561C523.68 294.561 520.715 295.486 518.337 297.335C515.959 299.185 514.168 301.739 512.965 304.997C511.761 308.256 511.159 311.984 511.159 316.182C511.159 320.409 511.761 324.181 512.965 327.499C514.198 330.786 516.003 333.384 518.381 335.293C520.788 337.171 523.738 338.111 527.232 338.111ZM612.7 321.554V282.364H628.64V350H613.184V337.979H612.48C610.953 341.766 608.443 344.863 604.95 347.27C601.486 349.677 597.214 350.881 592.136 350.881C587.703 350.881 583.784 349.897 580.379 347.93C577.003 345.934 574.361 343.043 572.453 339.256C570.544 335.439 569.59 330.83 569.59 325.429V282.364H585.531V322.963C585.531 327.249 586.705 330.654 589.053 333.179C591.402 335.704 594.484 336.966 598.301 336.966C600.649 336.966 602.924 336.393 605.126 335.249C607.328 334.104 609.133 332.401 610.542 330.141C611.98 327.851 612.7 324.989 612.7 321.554ZM692.289 300.241L677.758 301.827C677.347 300.359 676.628 298.979 675.6 297.688C674.602 296.396 673.252 295.354 671.549 294.561C669.846 293.768 667.762 293.372 665.296 293.372C661.979 293.372 659.19 294.091 656.93 295.53C654.699 296.968 653.598 298.832 653.627 301.122C653.598 303.089 654.317 304.689 655.785 305.922C657.282 307.155 659.748 308.168 663.183 308.96L674.72 311.426C681.119 312.806 685.875 314.993 688.987 317.987C692.128 320.982 693.713 324.901 693.742 329.744C693.713 334.001 692.465 337.759 689.999 341.017C687.563 344.246 684.172 346.771 679.827 348.591C675.483 350.411 670.492 351.321 664.856 351.321C656.577 351.321 649.914 349.589 644.864 346.125C639.815 342.632 636.806 337.773 635.837 331.55L651.381 330.053C652.086 333.106 653.583 335.41 655.873 336.966C658.163 338.522 661.142 339.3 664.812 339.3C668.599 339.3 671.637 338.522 673.927 336.966C676.246 335.41 677.406 333.487 677.406 331.197C677.406 329.26 676.657 327.66 675.16 326.398C673.692 325.135 671.402 324.167 668.291 323.491L656.754 321.07C650.266 319.719 645.466 317.444 642.354 314.244C639.243 311.015 637.702 306.935 637.731 302.003C637.702 297.834 638.832 294.223 641.122 291.17C643.441 288.088 646.655 285.71 650.765 284.037C654.904 282.334 659.675 281.483 665.076 281.483C673.002 281.483 679.24 283.171 683.791 286.547C688.37 289.923 691.203 294.488 692.289 300.241ZM734.461 282.364V294.693H695.578V282.364H734.461ZM705.178 266.159H721.118V329.656C721.118 331.799 721.441 333.443 722.087 334.588C722.762 335.704 723.643 336.467 724.729 336.878C725.815 337.289 727.019 337.494 728.34 337.494C729.338 337.494 730.248 337.421 731.07 337.274C731.921 337.127 732.567 336.995 733.007 336.878L735.694 349.339C734.842 349.633 733.624 349.956 732.039 350.308C730.483 350.661 728.575 350.866 726.314 350.925C722.322 351.042 718.726 350.44 715.526 349.119C712.326 347.769 709.787 345.685 707.908 342.866C706.059 340.048 705.149 336.526 705.178 332.298V266.159ZM741.592 350V282.364H757.048V293.636H757.752C758.985 289.732 761.099 286.723 764.093 284.609C767.117 282.466 770.566 281.395 774.441 281.395C775.322 281.395 776.305 281.439 777.392 281.527C778.507 281.586 779.432 281.688 780.166 281.835V296.499C779.491 296.264 778.419 296.058 776.951 295.882C775.513 295.677 774.118 295.574 772.768 295.574C769.862 295.574 767.249 296.205 764.93 297.467C762.64 298.7 760.835 300.418 759.514 302.619C758.193 304.821 757.532 307.36 757.532 310.237V350H741.592ZM784.556 350V282.364H800.496V350H784.556ZM792.57 272.764C790.046 272.764 787.873 271.928 786.053 270.254C784.233 268.552 783.323 266.511 783.323 264.134C783.323 261.726 784.233 259.686 786.053 258.013C787.873 256.31 790.046 255.459 792.57 255.459C795.124 255.459 797.297 256.31 799.087 258.013C800.907 259.686 801.817 261.726 801.817 264.134C801.817 266.511 800.907 268.552 799.087 270.254C797.297 271.928 795.124 272.764 792.57 272.764ZM840.631 351.321C833.85 351.321 827.993 349.912 823.062 347.094C818.159 344.246 814.387 340.224 811.745 335.028C809.103 329.803 807.782 323.653 807.782 316.578C807.782 309.621 809.103 303.515 811.745 298.26C814.416 292.976 818.144 288.866 822.929 285.93C827.715 282.965 833.336 281.483 839.795 281.483C843.963 281.483 847.897 282.158 851.596 283.509C855.324 284.83 858.612 286.884 861.459 289.673C864.336 292.462 866.597 296.014 868.241 300.33C869.884 304.616 870.706 309.723 870.706 315.653V320.541H815.268V309.797H855.427C855.397 306.744 854.737 304.028 853.445 301.651C852.153 299.243 850.348 297.35 848.029 295.97C845.739 294.59 843.068 293.901 840.015 293.901C836.756 293.901 833.894 294.693 831.428 296.278C828.962 297.834 827.039 299.889 825.66 302.443C824.309 304.968 823.619 307.742 823.59 310.766V320.145C823.59 324.079 824.309 327.455 825.748 330.273C827.186 333.062 829.197 335.205 831.78 336.702C834.364 338.17 837.387 338.903 840.851 338.903C843.17 338.903 845.269 338.58 847.148 337.935C849.027 337.259 850.656 336.276 852.036 334.984C853.416 333.693 854.458 332.093 855.162 330.185L870.046 331.858C869.107 335.792 867.316 339.226 864.674 342.162C862.061 345.068 858.715 347.329 854.634 348.943C850.554 350.528 845.886 351.321 840.631 351.321ZM931.449 300.241L916.918 301.827C916.507 300.359 915.788 298.979 914.76 297.688C913.762 296.396 912.412 295.354 910.709 294.561C909.007 293.768 906.922 293.372 904.456 293.372C901.139 293.372 898.35 294.091 896.09 295.53C893.859 296.968 892.758 298.832 892.787 301.122C892.758 303.089 893.477 304.689 894.945 305.922C896.442 307.155 898.908 308.168 902.343 308.96L913.88 311.426C920.279 312.806 925.035 314.993 928.147 317.987C931.288 320.982 932.873 324.901 932.902 329.744C932.873 334.001 931.625 337.759 929.16 341.017C926.723 344.246 923.332 346.771 918.988 348.591C914.643 350.411 909.652 351.321 904.016 351.321C895.738 351.321 889.074 349.589 884.025 346.125C878.975 342.632 875.966 337.773 874.998 331.55L890.542 330.053C891.246 333.106 892.743 335.41 895.033 336.966C897.323 338.522 900.303 339.3 903.972 339.3C907.759 339.3 910.797 338.522 913.087 336.966C915.406 335.41 916.566 333.487 916.566 331.197C916.566 329.26 915.817 327.66 914.32 326.398C912.852 325.135 910.562 324.167 907.451 323.491L895.914 321.07C889.426 319.719 884.626 317.444 881.515 314.244C878.403 311.015 876.862 306.935 876.891 302.003C876.862 297.834 877.992 294.223 880.282 291.17C882.601 288.088 885.815 285.71 889.925 284.037C894.064 282.334 898.835 281.483 904.236 281.483C912.162 281.483 918.401 283.171 922.951 286.547C927.53 289.923 930.363 294.488 931.449 300.241Z" fill="#2154B0"/>
<path d="M190 9C294.934 9 380 94.0659 380 199C380 303.934 294.934 389 190 389C85.0659 389 0 303.934 0 199C0 94.0659 85.0659 9 190 9ZM114.238 305C116.771 309.874 119.471 314.499 122.323 318.851C136.379 340.295 153.265 354.094 170.882 359.881C174.225 360.274 177.598 360.564 181 360.751V305H114.238ZM199 360.751C202.401 360.564 205.775 360.274 209.117 359.881C226.734 354.094 243.62 340.296 257.677 318.851C260.529 314.499 263.229 309.874 265.762 305H199V360.751ZM67.4893 305C81.8306 321.561 99.4745 335.182 119.396 344.844C109.708 333.641 101.199 320.191 94.2031 305H67.4893ZM285.797 305C278.801 320.191 270.291 333.641 260.604 344.844C280.525 335.182 298.169 321.561 312.511 305H285.797ZM28.2461 208C29.836 237.028 39.0694 264.02 53.9658 287H81.4619C81.7203 282.403 82.0878 277.828 82.5615 273.283C76.8605 253.169 73.5159 231.138 73.0566 208H28.2461ZM269 224H199V287H273.888C276.26 280.908 278.389 274.535 280.25 267.914C279.128 260.317 277.647 252.855 275.81 245.601C273.898 238.051 271.618 230.786 269 223.871V224ZM306.943 208C306.504 230.149 303.42 251.282 298.156 270.691C298.769 276.087 299.231 281.528 299.538 287H326.034C340.931 264.02 350.164 237.028 351.754 208H306.943ZM111.951 224C109.353 230.876 107.09 238.098 105.19 245.601C103.166 253.595 101.573 261.841 100.418 270.243C102.116 276.032 104.019 281.625 106.112 287H181V224H111.951ZM91.0586 208C91.1822 213.812 91.5006 219.536 92.001 225.157C93.7514 219.262 95.6976 213.535 97.8271 208H91.0586ZM283.173 208C284.99 212.722 286.673 217.583 288.215 222.57C288.591 217.782 288.835 212.923 288.94 208H283.173ZM199 206H258V200.339C257.278 199.073 256.543 197.827 255.793 196.601C247.219 182.576 237.039 171.45 225.836 163.859C217.26 158.049 208.212 154.399 199 153.006V206ZM181 153.167C172.134 154.667 163.43 158.259 155.164 163.859L154.116 164.582C143.326 172.149 133.513 183.014 125.207 196.601C124.109 198.397 123.039 200.237 122 202.118V206H181V153.167ZM52.377 113.5C38.4131 135.928 29.7803 162.018 28.248 190H73.2832C74.5402 162.28 79.9459 136.302 88.5596 113.5H52.377ZM107.931 113.5C98.6855 135.583 92.6782 161.647 91.3027 190H105.745C108.048 185.396 110.491 180.973 113.072 176.751C123.24 160.119 135.311 146.926 148.596 137.925C158.946 130.912 169.876 126.551 181 124.967V113.5H107.931ZM199 124.834C210.469 126.295 221.744 130.702 232.404 137.925C245.689 146.926 257.76 160.119 267.928 176.751C270.509 180.973 272.954 185.395 275.257 190H288.697C287.322 161.647 281.314 135.583 272.069 113.5H199V124.834ZM291.44 113.5C300.054 136.301 305.46 162.28 306.717 190H351.752C350.22 162.018 341.587 135.928 327.623 113.5H291.44ZM131.489 47.8916C104.334 58.4135 80.7234 76.0447 62.9375 98.5H94.9014C104.584 77.9288 117.062 60.6274 131.489 47.8916ZM199 98.5H264.973C262.67 94.1749 260.235 90.0518 257.677 86.1494C240.947 60.6255 220.209 45.932 199 42.6875V98.5ZM248.51 47.8916C262.937 60.6274 275.416 77.9287 285.099 98.5H317.062C299.276 76.0446 275.665 58.4135 248.51 47.8916ZM181 42.6875C159.791 45.932 139.053 60.6255 122.323 86.1494C119.765 90.0518 117.33 94.1749 115.027 98.5H181V42.6875Z" fill="#2154B0"/>
</svg>
